<svg height="512" viewBox="0 0 512 512" width="512" xmlns="http://www.w3.org/2000/svg"><g><g><path d="m240 328h32v136h-32z" fill="#e0e0e2"/><g fill="#57565c"><path d="m328 464h-144l-24 32h192z"/><rect height="280" rx="32" width="144" x="184" y="16"/></g></g><g><path d="m296 336a72.083 72.083 0 0 0 72-72v-63a8 8 0 0 0 -16 0v63a56.062 56.062 0 0 1 -56 56h-80a56.062 56.062 0 0 1 -56-56v-63a8 8 0 0 0 -16 0v63a72.083 72.083 0 0 0 72 72h16v120h-48a8.009 8.009 0 0 0 -6.4 3.2l-24 32a8 8 0 0 0 6.4 12.8h192a8 8 0 0 0 6.4-12.8l-24-32a8.009 8.009 0 0 0 -6.4-3.2h-48v-120zm-48 0h16v120h-16zm76 136 12 16h-160l12-16z"/><path d="m216 304h80a40.045 40.045 0 0 0 40-40v-216a40.045 40.045 0 0 0 -40-40h-80a40.045 40.045 0 0 0 -40 40v216a40.045 40.045 0 0 0 40 40zm-24-256a24.027 24.027 0 0 1 24-24h80a24.027 24.027 0 0 1 24 24v16h-32a8 8 0 0 0 0 16h32v16h-32a8 8 0 0 0 0 16h32v16h-32a8 8 0 0 0 0 16h32v16h-32a8 8 0 0 0 0 16h32v16h-32a8 8 0 0 0 0 16h32v16h-32a8 8 0 0 0 0 16h32v24a24.027 24.027 0 0 1 -24 24h-80a24.027 24.027 0 0 1 -24-24v-24h32a8 8 0 0 0 0-16h-32v-16h32a8 8 0 0 0 0-16h-32v-16h32a8 8 0 0 0 0-16h-32v-16h32a8 8 0 0 0 0-16h-32v-16h32a8 8 0 0 0 0-16h-32v-16h32a8 8 0 0 0 0-16h-32z"/></g></g></svg>